<?xml version="1.0" encoding="UTF-8"?>
<svg width="70" height="70" viewBox="0 0 70 70" fill="none" xmlns="http://www.w3.org/2000/svg">
  <!-- Réservoir GPL -->
  <path d="M25 20V50C25 54 28 58 35 58C42 58 45 54 45 50V20H25Z" fill="#B3B3B3"/>
  <path d="M25 20H45C45 17 41 14 35 14C29 14 25 17 25 20Z" fill="#999999"/>
  
  <!-- Valve du réservoir -->
  <path d="M32 14V8C32 6.89543 32.8954 6 34 6H36C37.1046 6 38 6.89543 38 8V14H32Z" fill="#777777"/>
  
  <!-- Zone de niveau -->
  <path d="M29 25H41V45H29V25Z" fill="#1D79C4"/>
  
  <!-- Goutte GPL au centre du réservoir -->
  <path d="M35 30C35 30 32 33 32 35C32 37 33.34315 38 35 38C36.65685 38 38 37 38 35C38 33 35 30 35 30Z" fill="#FFBF00"/>
  
  <!-- Reflet sur le réservoir -->
  <path d="M26 21C26 20.4477 26.4477 20 27 20H31V58C30.3333 58 29.6667 58 29 58C27.3431 58 26 56.6569 26 55V21Z" fill="white" fill-opacity="0.1"/>
  
  <!-- Reflet sur la goutte -->
  <path d="M33.5 36.25C33.5 37.2165 34.0335 38 34.7 38C35.3665 38 35.9 37.2165 35.9 36.25C35.9 35.2835 35.3665 34.5 34.7 34.5" fill="white" fill-opacity="0.3"/>
</svg>
