<?xml version="1.0" encoding="UTF-8"?>
<svg version="1.1" xmlns="http://www.w3.org/2000/svg" width="512" height="512">
<path d="M0 0 C1.18513184 0.00563965 2.37026367 0.0112793 3.59130859 0.01708984 C29.44221778 0.37392213 53.20697241 9.36788993 72.75 26.3125 C73.33523438 26.75464844 73.92046875 27.19679688 74.5234375 27.65234375 C91.50825271 40.76972451 103.80625813 65.05167467 106.51855469 85.90185547 C108.86985786 110.39211661 105.12609964 135.29096078 93.75 157.3125 C94.884375 157.35375 96.01875 157.395 97.1875 157.4375 C103.89780365 158.28373723 108.95321852 162.14714796 113.1875 167.25 C117.55933611 175.81879877 118.09377305 185.16134091 115.625 194.4375 C112.16490652 204.40320702 106.41460172 212.22117311 97.75 218.3125 C95.84756744 218.99913102 93.93025047 219.64597604 92 220.25 C87.97650649 221.90772428 86.9598052 222.85642347 85.109375 226.87890625 C84.37501068 229.13032281 83.7269091 231.39520182 83.09008789 233.67602539 C78.92746174 248.37890603 70.67655698 264.38594302 59.75 275.3125 C59.59379445 276.72577947 59.49943827 278.1460459 59.43359375 279.56640625 C59.39169922 280.42041016 59.34980469 281.27441406 59.30664062 282.15429688 C59.26732422 283.05212891 59.22800781 283.94996094 59.1875 284.875 C59.14431641 285.77669922 59.10113281 286.67839844 59.05664062 287.60742188 C58.95021858 289.84228485 58.84820012 292.07726308 58.75 294.3125 C59.84634766 294.73329834 59.84634766 294.73329834 60.96484375 295.16259766 C63.52021965 296.21763101 65.88797119 297.38739502 68.3125 298.7109375 C69.61429199 299.42020386 69.61429199 299.42020386 70.94238281 300.14379883 C71.86889648 300.65322021 72.79541016 301.1626416 73.75 301.6875 C75.21324707 302.48933716 75.21324707 302.48933716 76.70605469 303.30737305 C85.84259325 308.33158536 94.90258315 313.48391078 103.93505859 318.69238281 C106.9073935 320.40308658 109.88503423 322.1042994 112.86328125 323.8046875 C124.68054081 330.56643012 136.41327648 337.45359299 148.0625 344.5 C148.66667755 344.86402924 149.2708551 345.22805847 149.89334106 345.6031189 C151.61489359 346.64159098 153.33290635 347.68592426 155.05078125 348.73046875 C156.03216064 349.32625732 157.01354004 349.9220459 158.0246582 350.53588867 C162.46732386 353.43199885 166.02310839 356.23387208 168.9375 360.6875 C169.42605469 361.41710937 169.91460937 362.14671875 170.41796875 362.8984375 C183.86153751 387.26244188 173.75 418.48563797 173.75 446.3125 C59.24 446.3125 -55.27 446.3125 -173.25 446.3125 C-173.25 365.66746215 -173.25 365.66746215 -164.27075195 356.16210938 C-157.02462768 349.52967763 -148.18324976 344.8151786 -139.6875 340 C-137.93904107 339.00176374 -136.19157584 338.00180306 -134.44415283 337.00175476 C-132.73756429 336.02528282 -131.03016626 335.05022606 -129.32275391 334.07519531 C-125.48691748 331.87475522 -121.67765409 329.63211247 -117.875 327.375 C-107.48263275 321.22638971 -96.97530887 315.2761463 -86.48291016 309.30058289 C-82.5979436 307.08623353 -78.722333 304.85624579 -74.8515625 302.6171875 C-73.39314941 301.77583252 -73.39314941 301.77583252 -71.90527344 300.91748047 C-70.09146342 299.87041452 -68.27951992 298.82010658 -66.46972656 297.76611328 C-65.67276367 297.3070459 -64.87580078 296.84797852 -64.0546875 296.375 C-63.36358887 295.97410156 -62.67249023 295.57320313 -61.96044922 295.16015625 C-60.25 294.3125 -60.25 294.3125 -58.25 294.3125 C-57.75121876 279.82709386 -57.75121876 279.82709386 -64.9375 267.859375 C-74.51481926 257.31138149 -82.01355152 240.21677185 -85.125 226.4375 C-85.96461294 223.1493815 -85.96461294 223.1493815 -88.75390625 221.59765625 C-90.26791016 220.99244141 -90.26791016 220.99244141 -91.8125 220.375 C-102.83753837 215.37082091 -109.57850982 207.9905677 -114.28125 196.875 C-117.47968132 187.63508729 -117.52683542 178.37573557 -113.44921875 169.43359375 C-110.6000097 164.39411326 -106.26238896 161.06439982 -101.25 158.3125 C-98.5906158 157.8097904 -95.94663442 157.58964639 -93.25 157.3125 C-93.47139648 156.76013672 -93.69279297 156.20777344 -93.92089844 155.63867188 C-106.15016334 124.91916565 -111.96419253 93.9311767 -99.03515625 62.296875 C-93.79519579 50.21692109 -86.44555302 40.61834451 -77.25 31.3125 C-76.60675781 30.59707031 -75.96351562 29.88164063 -75.30078125 29.14453125 C-56.67784986 8.90572729 -26.6976619 -0.13388998 0 0 Z " fill="#F3D1B3" transform="translate(192.25,61.6875)"/>
<path d="M0 0 C1.18513184 0.00563965 2.37026367 0.0112793 3.59130859 0.01708984 C29.44221778 0.37392213 53.20697241 9.36788993 72.75 26.3125 C73.33523438 26.75464844 73.92046875 27.19679688 74.5234375 27.65234375 C91.50825271 40.76972451 103.80625813 65.05167467 106.51855469 85.90185547 C108.06350793 101.99348869 107.27630966 117.78851703 102.75 133.3125 C102.52989258 134.09189941 102.30978516 134.87129883 102.08300781 135.67431641 C95.21173952 159.30208765 81.91186162 183.50633641 64.75 201.3125 C61.75482132 200.22754125 59.0042198 198.93713854 56.24609375 197.359375 C45.47031807 191.22149532 34.74856161 187.36401336 22.75 184.3125 C21.76902344 184.04566406 20.78804688 183.77882812 19.77734375 183.50390625 C-5.83831761 177.61758153 -33.22772832 184.90602924 -55.5703125 197.32421875 C-58.39390879 198.88720385 -61.21049426 200.2066876 -64.25 201.3125 C-89.47935457 175.9385646 -106.45929574 136.68335463 -106.6875 101 C-106.38146233 73.64195631 -96.34059188 50.63206449 -77.25 31.3125 C-76.60675781 30.59707031 -75.96351562 29.88164063 -75.30078125 29.14453125 C-56.67784986 8.90572729 -26.6976619 -0.13388998 0 0 Z " fill="#D90D17" transform="translate(192.25,61.6875)"/>
<path d="M0 0 C0.01458252 0.92224365 0.02916504 1.8444873 0.04418945 2.79467773 C0.10568474 6.25601518 0.17991477 9.71661453 0.26245117 13.17749023 C0.29545795 14.66794757 0.32356327 16.15852262 0.34643555 17.64916992 C0.5352089 29.63025326 1.23810406 39.99358603 10 49 C16.68864319 54.0092436 23.85305071 54.93878753 32 54 C38.72314884 51.85513277 44.38714025 48.1564931 48 42 C50.3968823 36.38923685 51.4564924 31.85205773 51.51171875 25.78125 C51.53864555 24.66623108 51.53864555 24.66623108 51.56611633 23.52868652 C51.61971465 21.18584646 51.6539498 18.84320395 51.6875 16.5 C51.72071792 14.89841028 51.75521163 13.29684649 51.79101562 11.6953125 C51.87541066 7.79701889 51.94245932 3.89877869 52 0 C62.25462132 2.3455218 70.07587865 10.85336802 75.6875 19.3125 C84.06811759 33.0672356 87.12498539 47.91414557 84.3125 63.91015625 C80.9924881 77.50837166 74.68152732 89.98749686 62.89930153 98.14742851 C60.19650487 100.40446083 60.01652335 100.91924652 59.25726891 104.62989998 C59.2300455 106.06308088 59.2356877 107.49711826 59.26742554 108.9302063 C59.2610377 109.72300991 59.25464986 110.51581352 59.24806845 111.33264148 C59.23385053 113.98702068 59.26231962 116.63921511 59.29052734 119.29345703 C59.28890546 121.19750873 59.28459138 123.10155975 59.27778625 125.00559998 C59.26876375 129.10584091 59.27850999 133.20545898 59.30268478 137.30563736 C59.34052515 143.79494851 59.33492463 150.28377877 59.32315063 156.77316284 C59.30629448 169.38572408 59.33439173 181.99799674 59.36656952 194.61051178 C59.40502711 210.64266297 59.42112836 226.67476493 59.40136492 242.70695198 C59.39484892 249.15103294 59.4090616 255.59463173 59.43981528 262.03863835 C59.45523248 266.05879196 59.45422359 270.07882622 59.44907188 274.09900093 C59.45012862 275.95529334 59.45801282 277.81159716 59.4734478 279.6678257 C59.57610224 292.56630593 59.1833475 303.55995027 49.70703125 313.35546875 C49.14371094 313.89816406 48.58039063 314.44085938 48 315 C46.88625 316.11375 46.88625 316.11375 45.75 317.25 C37.16156298 322.71536901 28.33104824 324.31610807 18.3671875 322.52734375 C8.80370776 320.08529311 2.0580165 314.39314613 -3 306 C-6.60791489 298.62914263 -7.15301347 291.0357991 -7.12025452 282.90711975 C-7.12110894 282.12118028 -7.12196337 281.3352408 -7.12284368 280.52548498 C-7.12448296 277.90767274 -7.11900266 275.28992542 -7.11352539 272.67211914 C-7.11324316 270.78933717 -7.11340196 268.9065551 -7.1139679 267.02377319 C-7.11425446 261.92310104 -7.10838046 256.82245247 -7.10139394 251.72178578 C-7.09513699 246.38731459 -7.09455475 241.05284283 -7.09336853 235.71836853 C-7.09026212 225.62150417 -7.08205803 215.52465065 -7.07201904 205.42779106 C-7.06083647 193.93087191 -7.05534205 182.43395224 -7.05032361 170.937029 C-7.03987485 147.29134666 -7.02228877 123.64567394 -7 100 C-7.62543701 99.69384766 -8.25087402 99.38769531 -8.89526367 99.07226562 C-20.87582016 92.96872728 -26.81464101 79.60046929 -31.25 67.625 C-34.80962881 50.42012741 -32.50591616 33.93386884 -23 19.0625 C-20.60448823 15.67846059 -18.08099481 12.79439064 -15 10 C-14.28328125 9.33742187 -13.5665625 8.67484375 -12.828125 7.9921875 C-4.0625 0 -4.0625 0 0 0 Z " fill="#FEB64D" transform="translate(405,189)"/>
<path d="M0 0 C1.39453125 1.54467773 1.39453125 1.54467773 2.8125 3.68359375 C3.58980469 4.82731445 3.58980469 4.82731445 4.3828125 5.99414062 C4.91648437 6.80044922 5.45015625 7.60675781 6 8.4375 C7.05533207 10.02432177 8.11753898 11.60659897 9.1875 13.18359375 C9.65542969 13.89056396 10.12335938 14.59753418 10.60546875 15.32592773 C12.57213337 17.68682047 14.50907621 17.93737823 17.48046875 18.31640625 C18.82044922 18.43822266 18.82044922 18.43822266 20.1875 18.5625 C21.08855469 18.64628906 21.98960937 18.73007812 22.91796875 18.81640625 C23.94857422 18.90728516 23.94857422 18.90728516 25 19 C25.27634277 18.4112207 25.55268555 17.82244141 25.83740234 17.21582031 C26.94057843 15.11325287 28.1259296 13.39999538 29.6015625 11.546875 C30.09140625 10.928125 30.58125 10.309375 31.0859375 9.671875 C31.84777344 8.72054688 31.84777344 8.72054688 32.625 7.75 C33.140625 7.1003125 33.65625 6.450625 34.1875 5.78125 C35.45514179 4.18496033 36.72714361 2.59213474 38 1 C44.39296661 2.99332068 50.47046394 5.41474614 56.5625 8.1875 C57.38041016 8.55552734 58.19832031 8.92355469 59.04101562 9.30273438 C61.02909218 10.19795013 63.01480308 11.0984165 65 12 C64.80869507 12.98226563 64.80869507 12.98226563 64.61352539 13.984375 C64.05411572 16.98342505 63.55810784 19.98977673 63.0625 23 C62.86076172 24.02996094 62.65902344 25.05992188 62.45117188 26.12109375 C61.60661036 31.5331818 61.38641609 35.21644255 64.6875 39.78125 C67.07385266 42.07015819 68.45686853 42.91553979 71.73803711 43.42578125 C74.87026916 43.33946697 77.84229196 42.98416662 80.9375 42.5 C82.00291016 42.36851563 83.06832031 42.23703125 84.16601562 42.1015625 C86.78495563 41.77272698 89.39192677 41.40491507 92 41 C94.48733351 46.56227655 96.9697485 52.12504777 99.3125 57.75 C99.58900391 58.38292969 99.86550781 59.01585937 100.15039062 59.66796875 C101.25463612 62.3437475 101.98352041 64.74681356 102.171875 67.640625 C100.55522921 70.89547185 98.31774698 71.91333144 95.21679688 73.68896484 C90.3341487 76.49742893 86.00097728 79.05593328 83.37890625 84.1484375 C82.8966879 88.25475042 83.1918887 90.24903834 85 94 C89.5996288 99.16773772 95.28450662 103.15895284 101 107 C100.38333953 110.74422073 99.30434425 113.86021688 97.71484375 117.30078125 C97.26689453 118.27724609 96.81894531 119.25371094 96.35742188 120.25976562 C95.65456055 121.77086914 95.65456055 121.77086914 94.9375 123.3125 C94.46505859 124.33923828 93.99261719 125.36597656 93.50585938 126.42382812 C92.34197675 128.951452 91.17322145 131.47670072 90 134 C89.34515625 133.86722656 88.6903125 133.73445312 88.015625 133.59765625 C85.01741872 133.01749487 82.01114196 132.50856468 79 132 C77.45505859 131.68482422 77.45505859 131.68482422 75.87890625 131.36328125 C71.50645691 130.66703135 68.40557892 130.2196456 64.44726562 132.41723633 C61.52873417 135.00676155 59.33871808 137.26795424 58.57421875 141.17724609 C58.66072862 143.44143607 59.0024372 145.47808423 59.5 147.6875 C59.76229412 149.14940398 60.02275952 150.61163743 60.28125 152.07421875 C60.5184375 153.36972656 60.755625 154.66523438 61 156 C61.05172152 157.66586394 61.07880722 159.33519755 61 161 C55.43829081 163.53691998 49.83115476 165.96400477 44.1875 168.3125 C43.54159912 168.59109863 42.89569824 168.86969727 42.23022461 169.15673828 C38.72618787 170.59412801 36.5595264 171.43992346 33 170 C31.63476562 168.43359375 31.63476562 168.43359375 30.40625 166.4375 C24.54135879 156.75076307 24.54135879 156.75076307 15.0625 151.5 C11.65909835 151.61673937 9.79026584 152.28499758 7.25683594 154.57714844 C3.56733335 158.57561427 0.38150878 162.89433965 -2.65649414 167.40185547 C-4 169 -4 169 -7 170 C-9.43603516 169.21142578 -9.43603516 169.21142578 -12.2890625 167.9453125 C-13.31257813 167.49542969 -14.33609375 167.04554688 -15.390625 166.58203125 C-16.45796875 166.10121094 -17.5253125 165.62039062 -18.625 165.125 C-19.70007813 164.65191406 -20.77515625 164.17882812 -21.8828125 163.69140625 C-29.83115434 160.16884566 -29.83115434 160.16884566 -31 159 C-30.82172727 150.92287384 -29.4482079 142.92999277 -28 135 C-28.556875 134.773125 -29.11375 134.54625 -29.6875 134.3125 C-32 133 -32 133 -34.04296875 130.33203125 C-38.01301405 127.20109724 -40.38386317 127.74044549 -45.25976562 128.27148438 C-46.26716797 128.40876953 -47.27457031 128.54605469 -48.3125 128.6875 C-49.85260742 128.86442383 -49.85260742 128.86442383 -51.42382812 129.04492188 C-53.95317744 129.33903226 -56.47674964 129.65804195 -59 130 C-60.73351651 125.92690466 -62.43233884 121.84022364 -64.125 117.75 C-64.61871094 116.59113281 -65.11242187 115.43226562 -65.62109375 114.23828125 C-66.30751953 112.56572266 -66.30751953 112.56572266 -67.0078125 110.859375 C-67.65194092 109.31975098 -67.65194092 109.31975098 -68.30908203 107.74902344 C-69 105 -69 105 -68.35546875 102.78222656 C-66.82515968 100.77011269 -65.51300817 99.84159864 -63.3046875 98.625 C-55.15336315 94.08647 -55.15336315 94.08647 -49.48828125 87 C-49.11798278 83.30663346 -49.4156444 81.37498464 -51 78 C-54.66716902 73.56167773 -59.32426396 70.29221511 -64 67 C-65.3353982 66.00275909 -66.66983412 65.00420939 -68 64 C-66.28137532 58.31531835 -63.8358325 53.01576119 -61.375 47.625 C-60.95476562 46.69816406 -60.53453125 45.77132812 -60.1015625 44.81640625 C-59.07035118 42.54305401 -58.03643137 40.27097594 -57 38 C-52.25676365 37.91865833 -47.97317022 38.02023867 -43.3125 39 C-41.54846432 39.3676138 -39.7771997 39.7024718 -38 40 C-37.20980469 40.165 -36.41960937 40.33 -35.60546875 40.5 C-31.87393175 39.78390294 -29.9424104 38.06250559 -27.38232422 35.30810547 C-24.69733613 30.82490566 -25.5482246 26.08369804 -26.0625 21.0625 C-26.14177734 19.99708984 -26.22105469 18.93167969 -26.30273438 17.83398438 C-26.50215166 15.21809877 -26.73527801 12.60994859 -27 10 C-21.41220716 7.48750902 -15.80713288 5.04155976 -10.125 2.75 C-9.4753125 2.481875 -8.825625 2.21375 -8.15625 1.9375 C-5.27315988 0.7747723 -3.14020959 0 0 0 Z " fill="#23A8FD" transform="translate(391,0)"/>
<path d="M0 0 C0.99 0.495 0.99 0.495 2 1 C1.34 1.66 0.68 2.32 0 3 C-0.33 38.31 -0.66 73.62 -1 110 C72.26 110 145.52 110 221 110 C225.57436652 54.56839816 225.57436652 54.56839816 219 1 C223.41009182 2.62298177 227.46692845 4.78122139 231.5625 7.0625 C232.31684326 7.48225098 233.07118652 7.90200195 233.84838867 8.33447266 C241.59441907 12.69518958 249.208131 17.27339381 256.8125 21.875 C257.42940704 22.24698517 258.04631409 22.61897034 258.68191528 23.00222778 C260.46366029 24.07809401 262.24210618 25.15920246 264.01953125 26.2421875 C265.05182861 26.8697998 266.08412598 27.49741211 267.14770508 28.14404297 C271.64057354 31.06750321 275.24137848 33.872884 278.1875 38.375 C278.67605469 39.10460937 279.16460937 39.83421875 279.66796875 40.5859375 C293.11153751 64.94994188 283 96.17313797 283 124 C168.49 124 53.98 124 -64 124 C-64 43.35496215 -64 43.35496215 -55.02075195 33.84960938 C-47.77493882 27.21746243 -38.93355943 22.50143065 -30.4375 17.6875 C-28.14404948 16.37975078 -25.85108172 15.07115459 -23.55859375 13.76171875 C-22.44597168 13.12669434 -21.33334961 12.49166992 -20.18701172 11.83740234 C-17.30573668 10.17626584 -14.44649993 8.48552665 -11.59765625 6.76953125 C-10.41635132 6.05953979 -10.41635132 6.05953979 -9.21118164 5.33520508 C-7.7702899 4.46513365 -6.33306467 3.58895196 -4.90014648 2.70581055 C-3.30138365 1.74384134 -1.65485605 0.86190419 0 0 Z " fill="#E5A546" transform="translate(83,384)"/>
<path d="M0 0 C21.27714111 15.41480457 36.84175756 37.77287102 41.5546875 63.96484375 C43.73364593 80.71510548 42.44723618 97.25298649 38.0625 113.5 C37.093125 112.695625 36.12375 111.89125 35.125 111.0625 C23.42399564 102.358595 9.88392691 96.85427503 -3.83642578 92.21386719 C-5.62675841 91.60557848 -7.40646241 90.96615325 -9.18359375 90.3203125 C-12.41050736 89.21467676 -15.62744759 88.32662616 -18.9375 87.5 C-20.00798584 87.22712158 -20.00798584 87.22712158 -21.10009766 86.94873047 C-35.94467669 83.35823016 -50.74795806 83.09892428 -65.9375 83.0625 C-66.90413574 83.05641724 -67.87077148 83.05033447 -68.86669922 83.04406738 C-80.94455481 82.99440009 -92.15338611 83.77866129 -103.9375 86.5 C-105.53372064 86.83137301 -107.13004971 87.16222489 -108.7265625 87.4921875 C-116.78879143 89.34764956 -124.45652831 91.57229396 -132.1796875 94.546875 C-134.9375 95.5 -134.9375 95.5 -137.9375 95.5 C-138.80779632 63.95845312 -134.41764628 38.55034749 -112.14111328 14.796875 C-95.79683548 -2.21508871 -76.87961689 -12.68370909 -53.9375 -17.5 C-53.04933594 -17.70109375 -52.16117187 -17.9021875 -51.24609375 -18.109375 C-34.22979842 -20.98861279 -13.52991501 -9.29744935 0 0 Z " fill="#FE4655" transform="translate(256.9375,81.5)"/>
<path d="M0 0 C0 30.69 0 61.38 0 93 C52.47 93 104.94 93 159 93 C159 62.31 159 31.62 159 0 C165.11569711 2.0385657 170.07819221 4.68022258 175.625 7.875 C176.56601562 8.40480469 177.50703125 8.93460937 178.4765625 9.48046875 C179.3840625 9.99996094 180.2915625 10.51945312 181.2265625 11.0546875 C182.45753662 11.75827393 182.45753662 11.75827393 183.71337891 12.47607422 C186.79001498 14.52650796 189.33245344 16.66490688 191 20 C191 54.98 191 89.96 191 126 C117.74 126 44.48 126 -31 126 C-31 19 -31 19 -27 14 C-24.28271484 12.1472168 -24.28271484 12.1472168 -21.2109375 10.44921875 C-20.10492188 9.83369141 -18.99890625 9.21816406 -17.859375 8.58398438 C-16.70953125 7.95814453 -15.5596875 7.33230469 -14.375 6.6875 C-13.20524276 6.03668077 -12.03596678 5.38499576 -10.8671875 4.73242188 C-2.29374173 0 -2.29374173 0 0 0 Z " fill="#FBB64F" transform="translate(113,368)"/>
<path d="M0 0 C0.06316406 0.825 0.12632812 1.65 0.19140625 2.5 C1.63152061 16.08255227 6.44709104 28.98452914 16 39 C16.64324219 39.68320312 17.28648437 40.36640625 17.94921875 41.0703125 C24.10997029 47.06024838 31.17700132 50.60667115 39 54 C39.88816406 54.38800781 40.77632812 54.77601563 41.69140625 55.17578125 C46.69990833 56.42347185 51.60847567 56.32829092 56.75 56.3125 C57.78382813 56.32861328 58.81765625 56.34472656 59.8828125 56.36132812 C73.47293343 56.36988614 87.25821307 51.31756688 97.3203125 41.90625 C108.22786822 29.52744258 113.29453769 16.10080007 116 0 C123.33698968 2.93479587 130.11265346 7.12586757 137 11 C137 42.02 137 73.04 137 105 C84.53 105 32.06 105 -22 105 C-22.391875 89.716875 -22.78375 74.43375 -23.1875 58.6875 C-23.36047607 53.88018311 -23.53345215 49.07286621 -23.71166992 44.11987305 C-23.79748535 38.20275879 -23.79748535 38.20275879 -23.81343079 35.42366028 C-23.8424226 33.50162433 -23.90889002 31.57991381 -24.00593567 29.66011047 C-24.64016974 16.44073281 -24.64016974 16.44073281 -22 11 C-16.73537069 5.50716553 -7.78019326 0 0 0 Z " fill="#23A8FD" transform="translate(135,356)"/>
<path d="M0 0 C1.39453125 1.54467773 1.39453125 1.54467773 2.8125 3.68359375 C3.58980469 4.82731445 3.58980469 4.82731445 4.3828125 5.99414062 C4.91648437 6.80044922 5.45015625 7.60675781 6 8.4375 C7.05533207 10.02432177 8.11753898 11.60659897 9.1875 13.18359375 C9.65542969 13.89056396 10.12335938 14.59753418 10.60546875 15.32592773 C12.57213337 17.68682047 14.50907621 17.93737823 17.48046875 18.31640625 C18.82044922 18.43822266 18.82044922 18.43822266 20.1875 18.5625 C21.08855469 18.64628906 21.98960937 18.73007812 22.91796875 18.81640625 C23.94857422 18.90728516 23.94857422 18.90728516 25 19 C25.27634277 18.4112207 25.55268555 17.82244141 25.83740234 17.21582031 C26.94057843 15.11325287 28.1259296 13.39999538 29.6015625 11.546875 C30.09140625 10.928125 30.58125 10.309375 31.0859375 9.671875 C31.84777344 8.72054688 31.84777344 8.72054688 32.625 7.75 C33.140625 7.1003125 33.65625 6.450625 34.1875 5.78125 C35.45514179 4.18496033 36.72714361 2.59213474 38 1 C44.39296661 2.99332068 50.47046394 5.41474614 56.5625 8.1875 C57.38041016 8.55552734 58.19832031 8.92355469 59.04101562 9.30273438 C61.02909218 10.19795013 63.01480308 11.0984165 65 12 C64.85950482 13.47968324 64.71245174 14.95874516 64.5625 16.4375 C64.44068359 17.67306641 64.44068359 17.67306641 64.31640625 18.93359375 C64 21 64 21 63 22 C61.69334729 22.29432306 60.37547788 22.53927744 59.0546875 22.76171875 C37.36163891 26.61415259 16.18189492 34.45539739 2.77734375 53.08984375 C1.03011318 55.83370303 1.03011318 55.83370303 -0.04296875 58.2109375 C-1.17523783 60.32758745 -2.37730039 61.22616392 -4.3125 62.625 C-9.56845591 66.92632509 -12.72315938 73.3578493 -14 80 C-14.88662226 88.96796609 -13.69875033 97.29844506 -8.01171875 104.52734375 C-6.48794691 106.19322903 -4.93893255 107.83633021 -3.3671875 109.45703125 C-0.93797075 112.06663538 1.07936204 114.77027699 3.125 117.6875 C14.81490975 133.9666126 32.46532986 143.40943724 52 147 C54.66998179 147.41292511 57.31007067 147.73628144 60 148 C60.33 152.29 60.66 156.58 61 161 C55.43829081 163.53691998 49.83115476 165.96400477 44.1875 168.3125 C43.54159912 168.59109863 42.89569824 168.86969727 42.23022461 169.15673828 C38.72618787 170.59412801 36.5595264 171.43992346 33 170 C31.63476562 168.43359375 31.63476562 168.43359375 30.40625 166.4375 C24.54135879 156.75076307 24.54135879 156.75076307 15.0625 151.5 C11.65909835 151.61673937 9.79026584 152.28499758 7.25683594 154.57714844 C3.56733335 158.57561427 0.38150878 162.89433965 -2.65649414 167.40185547 C-4 169 -4 169 -7 170 C-9.43603516 169.21142578 -9.43603516 169.21142578 -12.2890625 167.9453125 C-13.31257813 167.49542969 -14.33609375 167.04554688 -15.390625 166.58203125 C-16.45796875 166.10121094 -17.5253125 165.62039062 -18.625 165.125 C-19.70007813 164.65191406 -20.77515625 164.17882812 -21.8828125 163.69140625 C-29.83115434 160.16884566 -29.83115434 160.16884566 -31 159 C-30.82172727 150.92287384 -29.4482079 142.92999277 -28 135 C-28.556875 134.773125 -29.11375 134.54625 -29.6875 134.3125 C-32 133 -32 133 -34.04296875 130.33203125 C-38.01301405 127.20109724 -40.38386317 127.74044549 -45.25976562 128.27148438 C-46.26716797 128.40876953 -47.27457031 128.54605469 -48.3125 128.6875 C-49.85260742 128.86442383 -49.85260742 128.86442383 -51.42382812 129.04492188 C-53.95317744 129.33903226 -56.47674964 129.65804195 -59 130 C-60.73351651 125.92690466 -62.43233884 121.84022364 -64.125 117.75 C-64.61871094 116.59113281 -65.11242187 115.43226562 -65.62109375 114.23828125 C-66.30751953 112.56572266 -66.30751953 112.56572266 -67.0078125 110.859375 C-67.65194092 109.31975098 -67.65194092 109.31975098 -68.30908203 107.74902344 C-69 105 -69 105 -68.35546875 102.78222656 C-66.82515968 100.77011269 -65.51300817 99.84159864 -63.3046875 98.625 C-55.15336315 94.08647 -55.15336315 94.08647 -49.48828125 87 C-49.11798278 83.30663346 -49.4156444 81.37498464 -51 78 C-54.66716902 73.56167773 -59.32426396 70.29221511 -64 67 C-65.3353982 66.00275909 -66.66983412 65.00420939 -68 64 C-66.28137532 58.31531835 -63.8358325 53.01576119 -61.375 47.625 C-60.95476562 46.69816406 -60.53453125 45.77132812 -60.1015625 44.81640625 C-59.07035118 42.54305401 -58.03643137 40.27097594 -57 38 C-52.25676365 37.91865833 -47.97317022 38.02023867 -43.3125 39 C-41.54846432 39.3676138 -39.7771997 39.7024718 -38 40 C-37.20980469 40.165 -36.41960937 40.33 -35.60546875 40.5 C-31.87393175 39.78390294 -29.9424104 38.06250559 -27.38232422 35.30810547 C-24.69733613 30.82490566 -25.5482246 26.08369804 -26.0625 21.0625 C-26.14177734 19.99708984 -26.22105469 18.93167969 -26.30273438 17.83398438 C-26.50215166 15.21809877 -26.73527801 12.60994859 -27 10 C-21.41220716 7.48750902 -15.80713288 5.04155976 -10.125 2.75 C-9.4753125 2.481875 -8.825625 2.21375 -8.15625 1.9375 C-5.27315988 0.7747723 -3.14020959 0 0 0 Z " fill="#0193FA" transform="translate(391,0)"/>
<path d="M0 0 C0.54907093 5.38573988 -1.06596247 8.1916887 -4.25 12.3125 C-14.09645648 25.83340792 -16.75201799 40.44558416 -15 57 C-12.39450373 71.14271269 -4.61291872 82.58373201 6 92 C6.69343758 92.37322828 7.38687515 92.74645657 8.10132599 93.1309948 C10.4992752 95.49147349 10.48094169 97.22071646 10.52384996 100.50138867 C10.50811662 101.62884749 10.50811662 101.62884749 10.49206543 102.77908325 C10.49908391 103.98009275 10.49908391 103.98009275 10.50624418 105.20536506 C10.51720781 107.89781341 10.49966073 110.58933363 10.48242188 113.28173828 C10.48460696 115.20844296 10.4886025 117.13514631 10.49427795 119.06184387 C10.50285685 123.21655267 10.49903914 127.37100344 10.4858551 131.52569962 C10.46555284 138.0982639 10.47548197 144.67056697 10.4901123 151.24313354 C10.51918117 166.38961049 10.50842539 181.53601146 10.49741364 196.68250275 C10.48773705 210.54696234 10.48648553 224.41128598 10.51729441 238.27572238 C10.53065827 244.80561225 10.52472035 251.33511159 10.50392914 257.86497808 C10.49492731 261.93531503 10.50243212 266.00550231 10.51434135 270.07582664 C10.51646781 271.95874605 10.51177634 273.84168786 10.4996357 275.72456932 C10.42634772 287.77370653 10.94378101 296.50517048 19 306 C19 306.66 19 307.32 19 308 C19.56460938 308.2784375 20.12921875 308.556875 20.7109375 308.84375 C22.22897056 309.61053803 23.73472539 310.40216548 25.2265625 311.21875 C31.06770906 314.33910191 36.44844436 316.06605483 43 317 C43 317.66 43 318.32 43 319 C32.84390592 323.40031929 23.97535706 324.65632214 13.34765625 321.03515625 C4.89252352 317.30701952 -1.37515634 310.48128207 -4.8125 301.9375 C-7.0221432 295.81745792 -7.14619736 289.34447637 -7.12025452 282.90711975 C-7.12110894 282.12118028 -7.12196337 281.3352408 -7.12284368 280.52548498 C-7.12448296 277.90767274 -7.11900266 275.28992542 -7.11352539 272.67211914 C-7.11324316 270.78933717 -7.11340196 268.9065551 -7.1139679 267.02377319 C-7.11425446 261.92310104 -7.10838046 256.82245247 -7.10139394 251.72178578 C-7.09513699 246.38731459 -7.09455475 241.05284283 -7.09336853 235.71836853 C-7.09026212 225.62150417 -7.08205803 215.52465065 -7.07201904 205.42779106 C-7.06083647 193.93087191 -7.05534205 182.43395224 -7.05032361 170.937029 C-7.03987485 147.29134666 -7.02228877 123.64567394 -7 100 C-7.62543701 99.69384766 -8.25087402 99.38769531 -8.89526367 99.07226562 C-20.87582016 92.96872728 -26.81464101 79.60046929 -31.25 67.625 C-34.80962881 50.42012741 -32.50591616 33.93386884 -23 19.0625 C-20.60448823 15.67846059 -18.08099481 12.79439064 -15 10 C-14.28328125 9.33742187 -13.5665625 8.67484375 -12.828125 7.9921875 C-4.0625 0 -4.0625 0 0 0 Z " fill="#E7A644" transform="translate(405,189)"/>
<path d="M0 0 C6.13725812 2.45490325 11.64733424 5.74413388 17.32788086 9.08447266 C19.29252634 10.23826987 21.2621914 11.38311632 23.23242188 12.52734375 C41.37876567 23.12450476 41.37876567 23.12450476 45.375 29.5 C45.83648437 30.2115625 46.29796875 30.923125 46.7734375 31.65625 C49.55867856 36.97836668 50.24718551 41.58590221 50.22705078 47.56591797 C50.22734283 48.29831192 50.22763489 49.03070587 50.22793579 49.78529358 C50.22655094 52.18771529 50.21102997 54.58982048 50.1953125 56.9921875 C50.19157936 58.66512889 50.18873381 60.33807248 50.18673706 62.01101685 C50.1791243 66.40045272 50.15949619 70.7897549 50.1373291 75.17913818 C50.11320976 80.45303586 50.10407846 85.7269784 50.09242249 91.00091553 C50.07307031 99.00070316 50.03473141 107.00019779 50 115 C33.5 115 17 115 0 115 C0 77.05 0 39.1 0 0 Z " fill="#23A8FD" transform="translate(316,393)"/>
<path d="M0 0 C0.66 0 1.32 0 2 0 C2 37.95 2 75.9 2 115 C-14.5 115 -31 115 -48 115 C-48.16043524 96.93320966 -48.16043524 96.93320966 -48.1953125 89.18359375 C-48.21914856 83.91243214 -48.24723079 78.64155061 -48.30175781 73.37060547 C-48.34547994 69.11711957 -48.36919228 64.86393436 -48.37950897 60.61024094 C-48.38685336 58.99404548 -48.40119438 57.37786497 -48.42292023 55.76179886 C-48.57804975 43.73535006 -47.63847195 33.96519816 -39.0168457 24.84741211 C-31.49198763 17.95471134 -22.26413863 13.12107151 -13.4375 8.125 C-11.10157581 6.79651231 -8.76745867 5.46492107 -6.43359375 4.1328125 C-5.41322021 3.55418457 -4.39284668 2.97555664 -3.34155273 2.37939453 C-1.11719403 1.20064231 -1.11719403 1.20064231 0 0 Z " fill="#22A8FE" transform="translate(67,393)"/>
<path d="M0 0 C0.66 0 1.32 0 2 0 C3.33984375 1.43359375 3.33984375 1.43359375 4.9375 3.4375 C16.34532809 16.68831054 33.5960665 27.78056258 51.31298828 29.18310547 C71.26168593 30.40166531 88.52903272 25.16237757 103.69140625 11.85546875 C105.9362907 9.8141901 108.12537559 7.72445213 110.29296875 5.6015625 C112.4608896 3.5181061 114.58361068 1.76516612 117 0 C117.62357318 25.16037851 117.62357318 25.16037851 114 35 C113.52433594 36.44632812 113.52433594 36.44632812 113.0390625 37.921875 C107.22813934 53.82979231 96.20150739 64.23069151 81.125 71.4375 C68.90354497 76.94766461 51.3147138 77.59445309 38.6875 72.9375 C36.75944912 72.02340416 34.8602315 71.04522254 33 70 C32.04222656 69.48050781 31.08445313 68.96101563 30.09765625 68.42578125 C15.86151591 60.04813488 7.07220416 47.58027995 2 32 C-0.45329878 21.44954413 -0.21954789 10.75784655 0 0 Z " fill="#EEC8A9" transform="translate(134,338)"/>
<path d="M0 0 C8.86131523 4.6834579 14.6153645 11.81245583 17.6015625 21.375 C19.20884292 31.68564921 17.44436938 39.76659786 11.6015625 48.375 C7.010321 54.57660232 1.00544901 58.28319563 -6.3984375 60.375 C-16.6471273 61.83436036 -24.9169939 60.40292761 -33.3984375 54.375 C-40.60728561 48.26701047 -44.50180158 40.96900997 -45.7734375 31.6171875 C-46.19008238 22.47704036 -43.56372763 14.57962598 -37.7734375 7.5 C-27.70714653 -3.03844345 -13.33152475 -5.53239067 0 0 Z " fill="#DEEAFA" transform="translate(421.3984375,56.625)"/>
<path d="M0 0 C0 28.71 0 57.42 0 87 C47.19 87 94.38 87 143 87 C143 58.29 143 29.58 143 0 C148 1 148 1 151 3 C151.2860785 6.02055237 151.37791994 8.83426141 151.34057617 11.85595703 C151.34093778 12.78794355 151.34129938 13.71993008 151.34167194 14.68015862 C151.33942722 17.70625943 151.31655613 20.73181046 151.29296875 23.7578125 C151.28855963 25.62231174 151.28549803 27.48681467 151.28381348 29.35131836 C151.26806475 36.27593542 151.22618132 43.20047307 151.1875 50.125 C151.125625 65.59375 151.06375 81.0625 151 97 C98.53 97 46.06 97 -8 97 C-8.103125 81.551875 -8.20625 66.10375 -8.3125 50.1875 C-8.35802002 45.30735107 -8.40354004 40.42720215 -8.45043945 35.39916992 C-8.47302246 29.44592285 -8.47302246 29.44592285 -8.47721863 26.66011047 C-8.48490334 24.71185095 -8.50250301 22.76361541 -8.52787781 20.81550598 C-8.56437488 17.86641043 -8.56953388 14.91876929 -8.56762695 11.96948242 C-8.58561749 11.09965068 -8.60360804 10.22981894 -8.62214375 9.33362865 C-8.60127258 6.92936707 -8.60127258 6.92936707 -8 3 C-5.14524921 0.4946606 -3.78868328 0 0 0 Z " fill="#0193FA" transform="translate(121,364)"/>
<path d="M0 0 C0.66 0 1.32 0 2 0 C3.33984375 1.43359375 3.33984375 1.43359375 4.9375 3.4375 C16.34532809 16.68831054 33.5960665 27.78056258 51.31298828 29.18310547 C71.26168593 30.40166531 88.52903272 25.16237757 103.69140625 11.85546875 C105.9362907 9.8141901 108.12537559 7.72445213 110.29296875 5.6015625 C112.4608896 3.5181061 114.58361068 1.76516612 117 0 C117.05811773 3.74993479 117.09363593 7.49975352 117.125 11.25 C117.14175781 12.31347656 117.15851563 13.37695312 117.17578125 14.47265625 C117.18222656 15.49746094 117.18867188 16.52226562 117.1953125 17.578125 C117.20578613 18.52075195 117.21625977 19.46337891 117.22705078 20.43457031 C116.98613517 23.15665766 116.46457941 24.71023078 115 27 C94.66746776 43.87101218 70.97585899 49.84831415 45 48 C39.35498914 47.16460968 34.20874294 45.30896036 29 43 C28.33178223 42.71060547 27.66356445 42.42121094 26.97509766 42.12304688 C18.07722165 38.1888534 7.4908146 33.41807383 1 26 C0.36773016 23.13046766 0.0637488 20.88487096 0 18 C-0.02070557 17.23107422 -0.04141113 16.46214844 -0.06274414 15.66992188 C-0.0976965 13.27849639 -0.08781719 10.89150069 -0.0625 8.5 C-0.05798828 7.67757813 -0.05347656 6.85515625 -0.04882812 6.0078125 C-0.03718489 4.00517604 -0.01925556 2.00257773 0 0 Z " fill="#D8B598" transform="translate(134,338)"/>
<path d="M0 0 C0.25652344 1.26070312 0.51304688 2.52140625 0.77734375 3.8203125 C6.07085542 28.51382909 16.42861246 51.39359636 31 72 C28.2032113 75.35404359 24.42861082 77.08359437 20.625 79.0625 C19.635 79.5894043 19.635 79.5894043 18.625 80.12695312 C15.146836 81.95957141 11.6907821 83.62486304 8 85 C-7.99758625 68.91073704 -26.64123515 40.38591523 -29.29785156 17.42578125 C-29 15 -29 15 -27.49047852 13.48608398 C-26.79365967 13.07688721 -26.09684082 12.66769043 -25.37890625 12.24609375 C-24.60740234 11.78396484 -23.83589844 11.32183594 -23.04101562 10.84570312 C-22.22310547 10.38099609 -21.40519531 9.91628906 -20.5625 9.4375 C-19.77939453 8.96892578 -18.99628906 8.50035156 -18.18945312 8.01757812 C-4.56517701 0 -4.56517701 0 0 0 Z " fill="#B00B13" transform="translate(120,178)"/>
<path d="M0 0 C7.54652451 0.23957221 12.24910002 2.05745945 18 7 C24.15598327 14.41874907 24.74936238 22.71028539 24 32 C21.84426552 44.26413648 14.89492722 53.69023394 5 61 C2.10530456 62.69228349 -0.72825288 64.21049865 -4 65 C-4.99 64.67 -5.98 64.34 -7 64 C-6.79503906 63.01 -6.59007812 62.02 -6.37890625 61 C-6.10661239 59.66669902 -5.83448598 58.33336382 -5.5625 57 C-5.42779297 56.35160156 -5.29308594 55.70320313 -5.15429688 55.03515625 C-5.02216797 54.38417969 -4.89003906 53.73320312 -4.75390625 53.0625 C-4.57323608 52.18271484 -4.57323608 52.18271484 -4.38891602 51.28515625 C-3.36007869 45.24001037 -2.87256797 39.4235675 -2.8671875 33.2890625 C-2.86623077 32.59485199 -2.86527405 31.90064148 -2.86428833 31.18539429 C-2.86361397 29.73508614 -2.86541574 28.28477484 -2.86962891 26.83447266 C-2.87503736 24.60963281 -2.86963373 22.38499034 -2.86328125 20.16015625 C-2.86394121 18.74479122 -2.86522065 17.32942632 -2.8671875 15.9140625 C-2.86831543 14.6348291 -2.86944336 13.3555957 -2.87060547 12.03759766 C-2.78924634 9.08088864 -2.78924634 9.08088864 -4 7 C-3.22265625 5.2734375 -3.22265625 5.2734375 -2.0625 3.375 C-1.381875 2.26125 -0.70125 1.1475 0 0 Z " fill="#F0C8A9" transform="translate(285,219)"/>
<path d="M0 0 C3.3960618 0.49525901 4.6057809 1.01240857 7 3.4375 C7.50793457 6.27696228 7.50793457 6.27696228 7.51757812 9.77319336 C7.53018677 11.08142563 7.54279541 12.3896579 7.55578613 13.73753357 C7.5486258 15.16747576 7.54042169 16.59741305 7.53125 18.02734375 C7.53394468 19.49321246 7.53782691 20.95907943 7.54284668 22.42494202 C7.54874483 25.49757907 7.54017054 28.569751 7.52148438 31.64233398 C7.49871388 35.57807237 7.51180252 39.51271856 7.53577423 43.44841671 C7.55024133 46.47595927 7.54562188 49.50324373 7.53526306 52.53079414 C7.53259721 53.98164563 7.53586063 55.43252065 7.54518127 56.88334465 C7.55535751 58.91302915 7.53709239 60.94279591 7.51757812 62.97241211 C7.51439575 64.12696396 7.51121338 65.28151581 7.50793457 66.47105408 C6.89091648 70.07457094 5.88429389 71.2545731 3 73.4375 C0 74 0 74 -3 73.4375 C-5.64450808 70.81592822 -6.88241478 69.13292644 -7.50793457 65.43345642 C-7.51270813 63.76277855 -7.51270813 63.76277855 -7.51757812 62.05834961 C-7.53018677 60.79030991 -7.54279541 59.5222702 -7.55578613 58.21580505 C-7.54862685 56.84047893 -7.54042299 55.46515791 -7.53125 54.08984375 C-7.53394645 52.67167393 -7.53783016 51.25350592 -7.54284668 49.83534241 C-7.54873275 46.86880829 -7.54020711 43.90275712 -7.52148438 40.9362793 C-7.49867348 37.13734812 -7.51183555 33.33954605 -7.53577423 29.54065609 C-7.55023915 26.61433933 -7.54562362 23.68828967 -7.53526306 20.7619648 C-7.53259872 19.36135282 -7.5358553 17.96071644 -7.54518127 16.56013298 C-7.55535846 14.6025121 -7.53709136 12.64480594 -7.51757812 10.68725586 C-7.51439575 9.5742662 -7.51121338 8.46127655 -7.50793457 7.31455994 C-6.69541143 2.71223924 -4.59269216 0.66976761 0 0 Z " fill="#586472" transform="translate(431,356.5625)"/>
<path d="M0 0 C1.63001953 0.01353516 1.63001953 0.01353516 3.29296875 0.02734375 C4.12441406 0.03894531 4.95585937 0.05054688 5.8125 0.0625 C5.8125 0.7225 5.8125 1.3825 5.8125 2.0625 C4.85150391 2.4646875 4.85150391 2.4646875 3.87109375 2.875 C-4.85694722 6.82928384 -10.92718297 12.42543913 -14.52734375 21.44921875 C-16.82112802 30.529347 -15.99776168 39.99543225 -11.1875 48.0625 C-6.1651006 55.43656407 -0.49400195 59.02390829 7.8125 62.0625 C7.8125 62.3925 7.8125 62.7225 7.8125 63.0625 C-3.84084678 63.92217312 -12.29742403 62.90039689 -21.56640625 55.046875 C-28.01641115 48.44245009 -31.26739408 40.77857365 -31.6875 31.5625 C-31.26157645 22.21880203 -27.9214035 14.75085489 -21.48046875 8.0078125 C-15.22789148 2.70324098 -8.14102512 -0.0875379 0 0 Z " fill="#AFDAFB" transform="translate(407.1875,53.9375)"/>
</svg>
